<svg id="svg258" xmlns="http://www.w3.org/2000/svg" viewBox="0 0 195.32 135.86"><defs><style>.cls-1{fill:#252525;}</style></defs><g id="layer1"><path id="path476" class="cls-1" d="M85,51.55H83c-1.12,0-2.74.07-3.6.16A97.64,97.64,0,0,0,65,53.91a27.11,27.11,0,0,0-6.46,2.37c-3.21,1.62-7.47,5-8.45,6.64-.19.34-.86,1.39-1.48,2.34a15.71,15.71,0,0,0-1.18,2c0,.2-.22.37-.56.56-.82.43-1,.58-2.77,3a14.38,14.38,0,0,0-2,3c-.4,1.05-1.47,4.28-1.71,5.15-.11.4-.38,1.33-.6,2.07-.76,2.56-1.4,5.23-2.58,10.87-.16.76-.34,1.6-.4,1.86a2.14,2.14,0,0,0,0,1.4.55.55,0,0,1,0,.57,16.43,16.43,0,0,0-.58,2.13c-.23,1-.48,2-.56,2.29a9,9,0,0,0-.27,1.22c-.07.4-.2,1.1-.29,1.56s-.22,1.11-.27,1.45a9.2,9.2,0,0,1-.22,1,3,3,0,0,0-.12.78,3.38,3.38,0,0,1-.1.72,15.48,15.48,0,0,0-.52,2.8,20.31,20.31,0,0,1-.66,4.11,11.62,11.62,0,0,0-.27,1.57c-.16,1.32-.56,3.83-.91,5.63-.06.34-.16.91-.21,1.28-.12.76-.55,3.36-.9,5.35-.13.74-.28,1.64-.34,2s-.21,1.09-.33,1.62c-.22,1-.52,2.66-.59,3.34a13.18,13.18,0,0,1-.37,2.28,31.28,31.28,0,0,0-.54,3.4c0,.28-.14.83-.22,1.23a18.35,18.35,0,0,0-.39,2.67,8,8,0,0,1-.27,1.33,4.8,4.8,0,0,0-.22,1.21,3.85,3.85,0,0,1-.12,1,10.69,10.69,0,0,0-.18,1.28,5.51,5.51,0,0,1-.1.89c-.06.24-.19,1.17-.29,2.06s-.22,1.79-.27,2a21.25,21.25,0,0,0-.23,2.23c-.07,1-.17,2.45-.23,3.21a69.31,69.31,0,0,0,0,7.76,26.45,26.45,0,0,0,1.19,6.31,16.2,16.2,0,0,0,1.42,3.39A18.64,18.64,0,0,0,33,182.53a18,18,0,0,0,9.4,4.68l1.11.16a15.5,15.5,0,0,0,5.84-.87,17.92,17.92,0,0,0,3.52-1.86,24,24,0,0,0,4.32-4.39,150.31,150.31,0,0,0,9.5-17.34c4.1-8.64,6.08-11.83,8.6-13.85A10.76,10.76,0,0,1,80,147.39c.77-.11,9.63-.14,43.94-.14,41.22,0,43,0,44.15.21a8.44,8.44,0,0,1,5.11,2.39c2,1.93,3.55,4.46,6.2,9.89,1.95,4,5.12,10.36,5.5,11,.17.31.63,1.16,1,1.9.78,1.47,2,3.62,3.06,5.35,3.68,6,7.64,8.78,13.56,9.37a15.76,15.76,0,0,0,5.91-1,18.52,18.52,0,0,0,10.34-9.47,24.74,24.74,0,0,0,2.6-9.3,76.5,76.5,0,0,0,0-9c-.13-1.63-.43-4.85-.51-5.54,0-.21-.13-1.11-.22-2s-.22-1.87-.28-2.18-.23-1.46-.38-2.56-.38-2.63-.5-3.4l-.4-2.56c-.1-.65-.28-1.73-.4-2.4s-.31-1.88-.43-2.68-.32-2-.44-2.62-.28-1.57-.35-2.06-.17-1.12-.23-1.39c-.33-1.54-1.32-7.44-1.55-9.2a7.44,7.44,0,0,0-.22-1.17,1.64,1.64,0,0,1-.1-.5,7.92,7.92,0,0,0-.16-1.17c-.09-.52-.25-1.52-.35-2.23s-.26-1.53-.34-1.84a5.1,5.1,0,0,1-.15-.72c0-.1-.13-.9-.29-1.79s-.42-2.27-.56-3.06c-.37-2-.8-4.21-1-5.07-.25-1.08-.56-2.53-.94-4.41-.19-.92-.41-2-.5-2.38a3.43,3.43,0,0,1-.1-.91c.13-.49-2.41-11.45-3.48-15-.51-1.71-1.75-5.42-2-6.11a26.73,26.73,0,0,0-2.93-4.19,4.87,4.87,0,0,0-1.78-1.67c-.42-.2-.55-.33-.6-.57a43.41,43.41,0,0,0-2.94-4.75,16.32,16.32,0,0,0-3.54-3.26,37,37,0,0,0-3.18-2.18,25.66,25.66,0,0,0-6.3-2.73l-1.61-.45a100.09,100.09,0,0,0-17.84-2.33,7.92,7.92,0,0,0-3.68.51c-1.11.43-2.6,1.06-2.73,1.15a4.5,4.5,0,0,1-.72.31c-.34.13-1,.39-1.4.59l-.78.36-2.95-.13c-7.13-.32-32.74-.45-47.1-.24-4.11.06-7.89.14-8.41.17l-2.85.12-1.89.07-2.34-1c-1.29-.57-2.9-1.22-3.59-1.46Zm89.65,20.2c.34,0,.73,0,1.21,0a5.41,5.41,0,0,1,2.4.33,7.79,7.79,0,0,1,4.5,4.66,9.44,9.44,0,0,1,.15,4,7.61,7.61,0,0,1-5.59,5.51,9.25,9.25,0,0,1-1.8.17,7.52,7.52,0,0,1-7-5,5.83,5.83,0,0,1-.27-2.36,5.85,5.85,0,0,1,.81-3.54,9.09,9.09,0,0,1,3-3,5.2,5.2,0,0,1,2.56-.74ZM99,73.18l.72,0a3.15,3.15,0,0,1,1.87.37,4.73,4.73,0,0,1,2.47,4.82,4.93,4.93,0,0,1-2.7,3.46A5.12,5.12,0,0,1,98.1,82a4.72,4.72,0,0,1-2.85-2.86,4.64,4.64,0,0,1,.2-3.39,5.07,5.07,0,0,1,2.31-2.24A2.38,2.38,0,0,1,99,73.18Zm48.9,0c1.25,0,1.38,0,2,.32a5,5,0,0,1,2.46,3,3.3,3.3,0,0,1-.07,2.43,4.6,4.6,0,0,1-2.94,3,5.55,5.55,0,0,1-2.52.12,4.75,4.75,0,0,1-3-2.44,3.2,3.2,0,0,1-.36-2,3.37,3.37,0,0,1,.35-2,4.79,4.79,0,0,1,2.12-2.15,3.2,3.2,0,0,1,2-.33ZM70,80.88a12.56,12.56,0,0,1,1.89.11,11.36,11.36,0,0,1,7,4.09,14.38,14.38,0,0,1,2,3.64,15.43,15.43,0,0,1,.55,3.47,13.74,13.74,0,0,1-.83,4.17,11.4,11.4,0,0,1-7.65,6.76,9.17,9.17,0,0,1-2.61.33,7.86,7.86,0,0,1-3-.3,11.69,11.69,0,0,1-6.49-4.45,12.09,12.09,0,0,1-1.92-4.57,15.88,15.88,0,0,1,0-4.13A11.42,11.42,0,0,1,63,83.28,12.21,12.21,0,0,1,68.06,81,12.56,12.56,0,0,1,70,80.88Zm90.38,4a4.92,4.92,0,0,1,2.15.38,7.39,7.39,0,0,1,3.79,2.66,6.44,6.44,0,0,1,1.44,4.45,6.76,6.76,0,0,1-1.41,4.45A8.49,8.49,0,0,1,162,99.65a8.28,8.28,0,0,1-3.47-.05,7.6,7.6,0,0,1-5.43-5.54,5.66,5.66,0,0,1-.05-3.21,7.56,7.56,0,0,1,5.12-5.58,5.15,5.15,0,0,1,2.21-.39Zm31.11,0a4.09,4.09,0,0,1,1.63.36,7.33,7.33,0,0,1,2.57,1.34,7.51,7.51,0,0,1,2.06,2.59,5.67,5.67,0,0,1,.64,3.47A5.09,5.09,0,0,1,198,95a7.53,7.53,0,0,1-8.85,4.63A7.64,7.64,0,0,1,183.66,94a6.88,6.88,0,0,1,.64-5,7.74,7.74,0,0,1,4.06-3.59,6.5,6.5,0,0,0,.92-.36,6.34,6.34,0,0,1,1.45-.17Zm-81.52,3.34c3.16,0,3.32,0,3.85.87l.32.51v5.73l-.36.49a3,3,0,0,1-.65.62,17.16,17.16,0,0,1-3.25.14h-3l-.4-.35c-.71-.63-.72-.68-.72-3.79,0-2.81,0-2.81.29-3.29.51-.88.73-.93,3.9-.93Zm27.82,0a5,5,0,0,1,2.33.8,3.91,3.91,0,0,1,1.36,1.59,2.7,2.7,0,0,1,.36,1.79,3.07,3.07,0,0,1-.36,1.85,4.26,4.26,0,0,1-1.94,1.95,3.24,3.24,0,0,1-1.6.33A3.32,3.32,0,0,1,135.5,96a4.23,4.23,0,0,1-2-3.37A4.37,4.37,0,0,1,135.37,89a5.61,5.61,0,0,1,2.37-.73Zm37.76,9.92a6.81,6.81,0,0,1,3.3.78,7.67,7.67,0,0,1,4,4.92,9.15,9.15,0,0,1,0,3.38,7.5,7.5,0,0,1-4.87,5.36,9,9,0,0,1-4.78,0,7.59,7.59,0,0,1-4.76-4.69,5.93,5.93,0,0,1-.34-2.07,6.43,6.43,0,0,1,1.15-4.26,7.44,7.44,0,0,1,6.28-3.45Zm-81.92,6c4.25,0,4.39,0,4.76.23a2.05,2.05,0,0,1,.6.67c.2.4.22.67.22,4.61v4.19h4.19c4.63,0,4.7,0,5.2.71.24.34.25.4.28,4.58a42.25,42.25,0,0,1-.08,4.63,2,2,0,0,1-.46.73l-.34.33-4.4,0-4.39,0v4.18c0,4.58,0,4.66-.67,5.21l-.36.3H89l-.33-.28c-.69-.57-.69-.62-.69-5.23V124.9H83.78c-2.36,0-4.35-.05-4.5-.1a1.94,1.94,0,0,1-.6-.52l-.31-.42,0-4.36c0-4.34,0-4.35.22-4.79.49-.85.49-.85,5.24-.85H88v-4.18c0-3.94,0-4.21.22-4.61a2,2,0,0,1,.6-.67c.36-.23.5-.23,4.75-.23Zm56.16,3.9a14,14,0,0,1,4.15.83,11.39,11.39,0,0,1,6.77,7.7,8.06,8.06,0,0,1,.3,2.78,8.76,8.76,0,0,1-.25,2.68,11.59,11.59,0,0,1-4.31,6.46,11.86,11.86,0,0,1-4.74,2.06,17.17,17.17,0,0,1-4.18-.05,11.49,11.49,0,0,1-7.1-4.69,11.45,11.45,0,0,1-.15-12.64,11.3,11.3,0,0,1,4.41-3.91l.83-.4a13.5,13.5,0,0,1,4.27-.82Z" transform="translate(-26.14 -51.55)"/></g></svg>