<svg id="Layer_1" data-name="Layer 1" xmlns="http://www.w3.org/2000/svg" viewBox="0 0 27.72 20.01"><path d="M27.72,7.46A18.22,18.22,0,0,0,21.6,2,16.37,16.37,0,0,0,6.26,1.8,18.29,18.29,0,0,0,0,7.06L2,9A15.6,15.6,0,0,1,7.35,4.5a14,14,0,0,1,13.1.19,15.75,15.75,0,0,1,5.27,4.6Z" transform="translate(0 0.01)" style="fill:#2e2e2e"/><path d="M23.09,11.93a12.92,12.92,0,0,0-4.19-3.8,11.29,11.29,0,0,0-10.55-.3A12.65,12.65,0,0,0,4,11.4l1.83,1.76a10.13,10.13,0,0,1,3.5-2.87,9.11,9.11,0,0,1,8.49.24,10.15,10.15,0,0,1,3.36,3.06Z" transform="translate(0 0.01)" style="fill:#2e2e2e"/><path d="M18,15.29A6,6,0,0,0,16,13.84a5.44,5.44,0,0,0-4.6,0,6,6,0,0,0-1.94,1.45L13.72,20Z" transform="translate(0 0.01)" style="fill:#2e2e2e"/></svg>