<svg id="Layer_1" data-name="Layer 1" xmlns="http://www.w3.org/2000/svg" viewBox="0 0 52 37"><defs><style>.clsx{fill:#fff;}</style></defs><rect x="1.5" y="1.5" width="49" height="34" rx="2.66"/><path class="clsx" d="M120.84,261.5a1.16,1.16,0,0,1,1.16,1.16v28.68a1.16,1.16,0,0,1-1.16,1.16H77.16A1.16,1.16,0,0,1,76,291.34V262.66a1.16,1.16,0,0,1,1.16-1.16h43.68m0-3H77.16A4.17,4.17,0,0,0,73,262.66v28.68a4.17,4.17,0,0,0,4.16,4.16h43.68a4.17,4.17,0,0,0,4.16-4.16V262.66a4.17,4.17,0,0,0-4.16-4.16Z" transform="translate(-73 -258.5)"/><polygon class="clsx" points="35 18.5 17 26.5 17 10.5 35 18.5"/></svg>
