<svg id="Layer_1" data-name="Layer 1" xmlns="http://www.w3.org/2000/svg" viewBox="0 0 237.01 226.44"><defs></defs><path class="cls-1" d="M856,346.55v154a20.55,20.55,0,0,0,20.55,20.55H940.4l32.68,31.32,32.68-31.32h66.7A20.55,20.55,0,0,0,1093,500.57v-154A20.55,20.55,0,0,0,1072.46,326H876.55A20.55,20.55,0,0,0,856,346.55ZM1068.31,501h-69.1l-1.27,1.23L973.08,526,951,504.88,947,501H880.7a4.69,4.69,0,0,1-4.7-4.7V439.41h197V496.3A4.69,4.69,0,0,1,1068.31,501Zm4.7-78H876V350.82a4.69,4.69,0,0,1,4.7-4.7h187.61a4.69,4.69,0,0,1,4.7,4.7Z" transform="translate(-856 -326)"/><rect class="cls-1" x="39.22" y="136.83" width="77.87" height="19.17" rx="7.63"/></svg>
