<svg id="Layer_1" data-name="Layer 1" xmlns="http://www.w3.org/2000/svg" viewBox="0 0 68.65 68.65"><defs></defs><path class="cls-1" d="M1067.29,791.88l7,7a13.72,13.72,0,0,1,0,19.42L1050.57,842a13.74,13.74,0,0,1-19.42,0l-7-7,43.14-43.14m0-8.48-4.24,4.24-43.14,43.14-4.24,4.24,4.24,4.24,7,7a19.75,19.75,0,0,0,27.9,0l23.73-23.73a19.72,19.72,0,0,0,0-27.9l-7-7-4.25-4.24Z" transform="translate(-1015.67 -783.4)"/><circle class="cls-1" cx="50.78" cy="34.24" r="2.8"/><circle class="cls-1" cx="29.68" cy="46.55" r="5.38"/><circle class="cls-1" cx="41.91" cy="34.24" r="2.8"/><circle class="cls-1" cx="41.91" cy="25.23" r="2.8"/><circle class="cls-1" cx="50.78" cy="25.3" r="2.8"/></svg>
