<svg id="Layer_1" data-name="Layer 1" xmlns="http://www.w3.org/2000/svg" viewBox="0 0 73.72 52.2"><defs><style>.cls-1{fill:#2970f6;}</style></defs><path class="cls-1" d="M852.64,791.8V844h73.72V791.8ZM888,824a4,4,0,0,0,7.8,0,3,3,0,0,0,.08-.43,3.15,3.15,0,0,1,6.28.43v12H874.48V818.12a6.71,6.71,0,1,1,13.42,0v5A3.57,3.57,0,0,0,888,824Zm30.36,12h-8.2V824A11.17,11.17,0,0,0,899,812.82a10.89,10.89,0,0,0-3.84.69,14.71,14.71,0,0,0-28.68,4.61V836h-5.84V799.8h57.72Z" transform="translate(-852.64 -791.8)"/></svg>