<svg id="Layer_1" data-name="Layer 1" xmlns="http://www.w3.org/2000/svg" viewBox="0 0 72.95 50.92"><defs><style>.cls-1{fill:#1472ff;}</style></defs><path class="cls-1" d="M853.07,793v50.92H926V793Zm35.37,30.25a3.46,3.46,0,0,0,3.48,3h.22a3.58,3.58,0,0,0,2.48-1.19h0a5.58,5.58,0,0,1,4.26-2,5.46,5.46,0,0,1,5.51,4.9v10H872.57V818.46a7.93,7.93,0,0,1,15.84,0v4.36A2.73,2.73,0,0,0,888.44,823.22ZM920,837.89h-9.39v-10c0-.29,0-.59-.08-.87a11.61,11.61,0,0,0-11.66-10,12.07,12.07,0,0,0-4.27.77h0v-.11c0-.16,0-.33,0-.49a14.16,14.16,0,0,0-28.2,1.26v19.43h-7.29V799H920Z" transform="translate(-853.07 -792.97)"/></svg>