<svg id="Layer_1" data-name="Layer 1" xmlns="http://www.w3.org/2000/svg" viewBox="0 0 63.96 63.96"><defs><style>.cls-1{fill:#727677;}</style></defs><path class="cls-1" d="M1245.26,821.81v-6h-9.2a22.1,22.1,0,0,0-4.78-10.84l6.6-6.6-4.24-4.24-6.72,6.72a23,23,0,0,0-10.83-4.22V787h-6v9.65a23.16,23.16,0,0,0-10.77,4.41l-6.67-6.67-4.24,4.24,6.62,6.62a22.09,22.09,0,0,0-4.58,10.93h-9.15v6h9.2a22.06,22.06,0,0,0,4.78,10.84l-6.59,6.59,4.24,4.25,6.72-6.72a23.13,23.13,0,0,0,10.83,4.23V851h6v-9.64a23.05,23.05,0,0,0,10.75-4.42l6.68,6.68,4.25-4.24-6.63-6.63a22.05,22.05,0,0,0,4.58-10.92Zm-49-2.81a17,17,0,1,1,17,16.56A16.79,16.79,0,0,1,1196.26,819Z" transform="translate(-1181.3 -787.02)"/></svg>