<svg id="Layer_1" data-name="Layer 1" xmlns="http://www.w3.org/2000/svg" viewBox="0 0 63.93 63.96"><defs></defs><path class="cls-1" d="M587.53,789.83H543.26A10.2,10.2,0,0,0,533.07,800v34.59a9.48,9.48,0,0,0,9.47,9.48h14.7l4.4,5.1,4,4.6,3.95-4.59,4.4-5.11h13.58a9.49,9.49,0,0,0,9.47-9.48V799.3A9.48,9.48,0,0,0,587.53,789.83ZM591,834.61a3.47,3.47,0,0,1-3.47,3.48H571.19l-5.17,6-.43.5-.43-.5-5.16-6H542.54a3.47,3.47,0,0,1-3.47-3.48V822.48H591Zm0-18.13H539.07V800a4.18,4.18,0,0,1,4.19-4.19h44.27A3.47,3.47,0,0,1,591,799.3Z" transform="translate(-533.07 -789.83)"/><path class="cls-1" d="M565,827.89v3.83A1.08,1.08,0,0,1,564,832.8h-18.7a1.08,1.08,0,0,1-1.08-1.08v-3.83a1.08,1.08,0,0,1,1.08-1.09H564A1.08,1.08,0,0,1,565,827.89Z" transform="translate(-533.07 -789.83)"/></svg>
