<svg xmlns="http://www.w3.org/2000/svg" viewBox="0 0 225.15 226.15"><g id="Layer_1" data-name="Layer 1"><path d="M1017.25,536l-17-14.24-3.07-2.57-36.56-30.6a3.07,3.07,0,0,0-4,0l-36.56,30.6-3,2.49L900,536a2.08,2.08,0,0,0,1.34,3.67H917.1V592a2.36,2.36,0,0,0,2.36,2.36h78.41a2.36,2.36,0,0,0,2.35-2.36V539.64h15.69A2.08,2.08,0,0,0,1017.25,536Zm-41,34.39H941.1v-27.2h35.12Z" transform="translate(-846.05 -428.02)" style="fill:#252525"/><path d="M958.62,439c56.1,0,101.57,45.7,101.57,102.08s-45.47,102.07-101.57,102.07S857.05,597.47,857.05,541.1,902.52,439,958.62,439m0-11a112.82,112.82,0,1,0,79.62,33.14A111.57,111.57,0,0,0,958.62,428Z" transform="translate(-846.05 -428.02)" style="fill:#252525"/></g><g id="home_icon_navigation_starting_point"><rect id="home_icon_navigation_starting_point-2" data-name="home_icon_navigation_starting_point" x="111.59" y="112.09" width="1.96" height="1.96" style="fill:#252525" class="icon-navigation-started-border"/></g></svg>
