<svg id="svg258" xmlns="http://www.w3.org/2000/svg" viewBox="0 0 190.08 143.82"><defs><style>.cls-1{fill:#282020;}.cls-2{fill:#252525;fill-rule:evenodd;}</style></defs><g id="layer1"><g id="g4442"><path id="rect4436" class="cls-1" d="M127.47,149h5.18a.76.76,0,0,1,.73.78v2.72a.75.75,0,0,1-.73.77h-5.18a.74.74,0,0,1-.72-.77v-2.72A.75.75,0,0,1,127.47,149Z" transform="translate(-28.76 -47.57)"/><path id="rect4438" class="cls-1" d="M115,149h5.17a.76.76,0,0,1,.73.78v2.72a.75.75,0,0,1-.73.77H115a.74.74,0,0,1-.73-.77v-2.72A.75.75,0,0,1,115,149Z" transform="translate(-28.76 -47.57)"/><path id="rect4440" class="cls-1" d="M122.12,148.93h3.36a.76.76,0,0,1,.73.77v2.7a.76.76,0,0,1-.73.77h-3.36a.75.75,0,0,1-.72-.77v-2.7A.75.75,0,0,1,122.12,148.93Z" transform="translate(-28.76 -47.57)"/></g><path id="path3365" class="cls-2" d="M195.08,62.86c-.06-.3-1.06-4.89-1.17-5.66a2.28,2.28,0,0,0-1.17-1.82c-8.34-6.06-18.1-9-27.77-7.35-1.73.29-3.95,4.88-3.95,4.88Z" transform="translate(-28.76 -47.57)"/><path id="path3352" class="cls-2" d="M53.25,62.86c.06-.3,1.06-4.89,1.17-5.66a2.28,2.28,0,0,1,1.17-1.82c8.34-6.06,18.1-9,27.77-7.35,1.73.29,4,4.88,4,4.88Z" transform="translate(-28.76 -47.57)"/><path class="cls-2" d="M197.71,65.67c-5-13.34-30.19-20.43-41.61-12.8C146.69,59.15,136.39,60,123.81,60s-22.88-.83-32.29-7.11c-3.21-2.15-7.52-3.13-12.15-3.14-11.85,0-25.87,6.35-29.47,15.94-5,13.34-22.06,66.24-21.1,94.07.91,26.43,4.94,31.88,14.19,31.64,21.48-2.44,23.68-15.32,38.16-27.37,13.43-11.17,22.83-12.19,42.57-11.78,19.75-.41,29.15.61,42.57,11.78,14.48,12.06,16.68,24.93,38.16,27.37,9.38.29,13.44-5.08,14.36-31.64C219.76,131.91,202.71,79,197.71,65.67ZM143,78.81l4,2.48-4,2.48Zm-36.54,0v5l-4-2.48ZM70.1,91.35c-6.92,0-12.53-5.95-12.53-13.28S63.18,64.8,70.1,64.8s12.52,5.94,12.52,13.27h0c0,7.32-5.61,13.27-12.52,13.27Zm39.3,25.7a9.52,9.52,0,0,0-9.23,9.78c0,1.35-8.29,1.45-8.29,0a9.52,9.52,0,0,0-9.24-9.78c-1.79-.06-1.49-9.91,0-9.85a9.52,9.52,0,0,0,9.24-9.79c0-1.56,8.29-1.45,8.29,0a9.52,9.52,0,0,0,9.23,9.79c1.86.26,1.34,10.15,0,9.84Zm24.67-35.68a9.24,9.24,0,1,1-18.44.32v-.32h0a9.23,9.23,0,1,1,18.44,0Zm17.74,44.72c-6.92,0-12.53-6-12.53-13.28s5.61-13.27,12.53-13.27,12.53,5.94,12.53,13.27h0c0,7.33-5.62,13.26-12.54,13.26ZM164.86,87a6.82,6.82,0,1,1,6.43-6.81A6.63,6.63,0,0,1,164.86,87Zm13.91,14.73A6.82,6.82,0,1,1,185.19,95a6.63,6.63,0,0,1-6.42,6.81Zm0-29.46a6.82,6.82,0,1,1,6.42-6.81,6.63,6.63,0,0,1-6.42,6.81ZM192.67,87a6.82,6.82,0,1,1,6.42-6.81h0A6.61,6.61,0,0,1,192.67,87Z" transform="translate(-28.76 -47.57)"/><path id="path3306" class="cls-2" d="M116.12,86c2.95-7.75,7.09-12.46,13.92-13.57l.78.7c-5.58,2.12-10.89,7.93-13.65,14.4Z" transform="translate(-28.76 -47.57)"/><path id="path3308" class="cls-2" d="M133.38,86.45c-3.18-8.49-7.62-13.65-15-14.86l-.84.76c6,2.33,11.72,8.68,14.7,15.77Z" transform="translate(-28.76 -47.57)"/><path id="path3348" class="cls-2" d="M166.27,112.8c0,8.46-6.47,15.33-14.46,15.33s-14.47-6.86-14.47-15.33,6.47-15.33,14.46-15.33h0C159.79,97.47,166.27,104.33,166.27,112.8Zm-2.11,0c0,7.23-5.54,13.08-12.37,13.08s-12.35-5.88-12.34-13.1S145,99.7,151.8,99.7s12.35,5.87,12.35,13.1Z" transform="translate(-28.76 -47.57)"/><path id="path3350" class="cls-2" d="M84,78.07c0,8.15-6.22,14.76-13.91,14.76S56.18,86.24,56.17,78.09s6.22-14.75,13.91-14.76h0C77.78,63.33,84,69.93,84,78.07Zm-2,0c0,7-5.32,12.6-11.89,12.6S58.2,85,58.2,78.07s5.33-12.6,11.89-12.6S82,71.11,82,78.07Z" transform="translate(-28.76 -47.57)"/></g></svg>